<svg width="16" height="20"><path d="M15.999 17.294L14.854 4.396a.55.55 0 00-.547-.504h-2.354A3.953 3.953 0 008.005.002a3.953 3.953 0 00-3.948 3.89H1.703a.547.547 0 00-.547.504L.011 17.294c0 .017-.004.033-.004.049 0 1.469 1.345 2.663 3 2.663h9.996c1.655 0 3-1.194 3-2.663 0-.016 0-.032-.004-.049zM8.005 1.106a2.848 2.848 0 012.844 2.786H5.161a2.848 2.848 0 012.844-2.786zm4.998 17.796H3.007c-1.038 0-1.88-.687-1.896-1.534L2.206 5.001h1.847v1.677a.55.55 0 00.552.552.55.55 0 00.552-.552V5.001h5.692v1.677a.55.55 0 00.552.552.55.55 0 00.552-.552V5.001H13.8l1.099 12.367c-.016.847-.862 1.534-1.896 1.534z"/></svg>