<svg height="28" width="28" xmlns="http://www.w3.org/2000/svg"><path clip-rule="evenodd" d="M8.857 2c1.43 0 2.76.445 3.858 1.205.475.328.906.715 1.285 1.15.379-.435.81-.822 1.285-1.15A6.756 6.756 0 0119.143 2C22.93 2 26 5.115 26 8.958c0 4.662-2.73 9.2-11.315 16.794a.988.988 0 01-1.341-.03C5.57 18.215 2 14.46 2 8.957 2 5.115 5.07 2 8.857 2zm3.644 3.699l.745.856a1 1 0 001.508 0L15.5 5.7a4.81 4.81 0 013.644-1.67C21.825 4.03 24 6.237 24 8.96c0 3.475-1.836 7.236-9.25 14.023a.992.992 0 01-1.361-.023c-3.207-3.12-5.487-5.463-7.023-7.575C4.687 13.074 4 11.172 4 8.958 4 6.236 6.175 4.03 8.857 4.03c1.45 0 2.75.642 3.644 1.669z" fill-rule="evenodd"/></svg>