<svg width="174" height="26" fill="none" xmlns="http://www.w3.org/2000/svg"><path d="M28.408 26H12.184c-1.746 0-3.334-.328-4.764-.984a11.086 11.086 0 01-3.674-2.69c-1.008-1.137-1.787-2.473-2.338-4.008-.55-1.535-.826-3.175-.826-4.922 0-1.734.275-3.363.826-4.886.551-1.535 1.33-2.871 2.338-4.008A10.974 10.974 0 017.42 1.795C8.85 1.127 10.438.793 12.184.793h16.224v3.603H12.184c-1.243 0-2.362.24-3.358.721a7.417 7.417 0 00-2.514 1.934c-.68.808-1.207 1.758-1.582 2.847a10.993 10.993 0 00-.544 3.498c0 1.243.181 2.414.544 3.516a9.064 9.064 0 001.582 2.865 7.52 7.52 0 002.514 1.916c.996.47 2.115.703 3.358.703h16.224V26zm34.154-12.604c0 1.747-.275 3.387-.826 4.922-.55 1.535-1.336 2.871-2.355 4.008a10.947 10.947 0 01-3.639 2.69c-1.418.656-2.994.984-4.728.984h-8.385c-1.746 0-3.334-.328-4.764-.984a11.085 11.085 0 01-3.674-2.69c-1.007-1.137-1.787-2.473-2.338-4.008-.55-1.535-.826-3.175-.826-4.922 0-1.734.276-3.363.826-4.886.551-1.535 1.33-2.871 2.338-4.008a10.973 10.973 0 013.674-2.707c1.43-.668 3.018-1.002 4.764-1.002h8.385c1.734 0 3.31.334 4.728 1.002a10.838 10.838 0 013.639 2.707c1.02 1.137 1.804 2.473 2.355 4.008.551 1.523.827 3.152.827 4.886zm-3.603 0c0-1.242-.182-2.408-.545-3.498-.363-1.09-.89-2.039-1.582-2.847a7.24 7.24 0 00-2.496-1.934c-.973-.48-2.08-.72-3.322-.72h-8.385c-1.242 0-2.361.24-3.357.72a7.417 7.417 0 00-2.514 1.934c-.68.808-1.207 1.758-1.582 2.847a10.992 10.992 0 00-.545 3.498c0 1.243.181 2.414.545 3.516a9.064 9.064 0 001.582 2.865 7.52 7.52 0 002.514 1.916c.996.47 2.115.703 3.357.703h8.385c1.242 0 2.35-.234 3.322-.703a7.338 7.338 0 002.496-1.916 8.628 8.628 0 001.582-2.865c.363-1.101.545-2.273.545-3.515zm36.035 5.397a7.135 7.135 0 01-.562 2.83 7.18 7.18 0 01-3.832 3.814 6.965 6.965 0 01-2.795.563H65.902v-3.604h21.903c.504 0 .972-.093 1.406-.28a3.443 3.443 0 001.125-.774 3.577 3.577 0 001.055-2.549c0-.492-.094-.955-.282-1.389a3.646 3.646 0 00-.773-1.142 3.443 3.443 0 00-1.125-.774 3.504 3.504 0 00-1.406-.281H73.109a7.047 7.047 0 01-2.794-.563 7.389 7.389 0 01-2.303-1.529 7.65 7.65 0 01-1.547-2.303A7.091 7.091 0 0165.902 8c0-.984.188-1.916.563-2.795a7.425 7.425 0 011.547-2.285 7.24 7.24 0 012.302-1.547 6.863 6.863 0 012.795-.58h20.092v3.603H73.11c-.492 0-.96.094-1.406.282a3.595 3.595 0 00-1.916 1.934A3.46 3.46 0 0069.506 8c0 .492.094.96.281 1.406a3.647 3.647 0 001.916 1.916c.445.188.914.282 1.406.282h14.696c.996 0 1.927.193 2.795.58a7.04 7.04 0 012.285 1.546 7.035 7.035 0 011.547 2.286 6.92 6.92 0 01.562 2.777z" fill="#000"/><path d="M117.371 26h-3.603V13.396a8.755 8.755 0 00-.704-3.498 8.874 8.874 0 00-1.933-2.847 8.842 8.842 0 00-2.865-1.934 8.575 8.575 0 00-3.498-.72h-1.934V26h-3.603V.793h5.537c1.148 0 2.25.152 3.304.457 1.067.293 2.063.709 2.989 1.248.925.54 1.769 1.184 2.531 1.934a13.16 13.16 0 011.986 2.496 12.707 12.707 0 014.5-4.43 12.558 12.558 0 012.971-1.248 12.032 12.032 0 013.322-.457h5.555V26h-3.604V4.396h-1.951c-1.242 0-2.408.24-3.498.721a9.083 9.083 0 00-2.865 1.934 9.279 9.279 0 00-1.934 2.847 8.754 8.754 0 00-.703 3.498V26zm24.205 0h-3.603V.793h3.603V26zm32.344 0h-4.711l-9.861-10.16L149.521 26h-4.728l12.217-12.604L144.793.793h4.728L173.92 26zm0-25.207l-10.986 11.303-2.338-2.409 8.613-8.894h4.711z" fill="#34C3FF"/></svg>