<svg viewBox="0 0 64 64" xmlns="http://www.w3.org/2000/svg" xmlns:xlink="http://www.w3.org/1999/xlink"><style>:root&gt;svg{display:none}:root&gt;svg:target{display:block}</style><svg viewBox="0 0 16 20" id="cart"><path d="M15.999 17.294L14.854 4.396a.55.55 0 00-.547-.504h-2.354A3.953 3.953 0 008.005.002a3.953 3.953 0 00-3.948 3.89H1.703a.547.547 0 00-.547.504L.011 17.294c0 .017-.004.033-.004.049 0 1.469 1.345 2.663 3 2.663h9.996c1.655 0 3-1.194 3-2.663 0-.016 0-.032-.004-.049zM8.005 1.106a2.848 2.848 0 012.844 2.786H5.161a2.848 2.848 0 012.844-2.786zm4.998 17.796H3.007c-1.038 0-1.88-.687-1.896-1.534L2.206 5.001h1.847v1.677a.55.55 0 00.552.552.55.55 0 00.552-.552V5.001h5.692v1.677a.55.55 0 00.552.552.55.55 0 00.552-.552V5.001H13.8l1.099 12.367c-.016.847-.862 1.534-1.896 1.534z"/></svg><svg viewBox="0 0 9 18" id="facebook" xmlns="http://www.w3.org/2000/svg"><path d="M7.852 10.125l.398-3.258h-2.5V4.754c0-.89.348-1.762 1.469-1.762h1.136V.22S7.325 0 6.34 0C4.277 0 2.934 1.559 2.934 4.383v2.484H.644v3.258h2.29V18H5.75v-7.875zm0 0"/></svg><svg viewBox="0 0 28 28" id="heart" xmlns="http://www.w3.org/2000/svg"><path clip-rule="evenodd" d="M8.857 2c1.43 0 2.76.445 3.858 1.205.475.328.906.715 1.285 1.15.379-.435.81-.822 1.285-1.15A6.756 6.756 0 0119.143 2C22.93 2 26 5.115 26 8.958c0 4.662-2.73 9.2-11.315 16.794a.988.988 0 01-1.341-.03C5.57 18.215 2 14.46 2 8.957 2 5.115 5.07 2 8.857 2zm3.644 3.699l.745.856a1 1 0 001.508 0L15.5 5.7a4.81 4.81 0 013.644-1.67C21.825 4.03 24 6.237 24 8.96c0 3.475-1.836 7.236-9.25 14.023a.992.992 0 01-1.361-.023c-3.207-3.12-5.487-5.463-7.023-7.575C4.687 13.074 4 11.172 4 8.958 4 6.236 6.175 4.03 8.857 4.03c1.45 0 2.75.642 3.644 1.669z" fill-rule="evenodd"/></svg><svg viewBox="0 0 56.7 56.7" id="instagram" xmlns="http://www.w3.org/2000/svg"><path d="M28.2 16.7c-7 0-12.8 5.7-12.8 12.8s5.7 12.8 12.8 12.8S41 36.5 41 29.5s-5.8-12.8-12.8-12.8zm0 21c-4.5 0-8.2-3.7-8.2-8.2s3.7-8.2 8.2-8.2 8.2 3.7 8.2 8.2-3.7 8.2-8.2 8.2z"/><circle cx="41.5" cy="16.4" r="2.9"/><path d="M49 8.9c-2.6-2.7-6.3-4.1-10.5-4.1H17.9c-8.7 0-14.5 5.8-14.5 14.5v20.5c0 4.3 1.4 8 4.2 10.7 2.7 2.6 6.3 3.9 10.4 3.9h20.4c4.3 0 7.9-1.4 10.5-3.9 2.7-2.6 4.1-6.3 4.1-10.6V19.3c0-4.2-1.4-7.8-4-10.4zm-.4 31c0 3.1-1.1 5.6-2.9 7.3s-4.3 2.6-7.3 2.6H18c-3 0-5.5-.9-7.3-2.6C8.9 45.4 8 42.9 8 39.8V19.3c0-3 .9-5.5 2.7-7.3 1.7-1.7 4.3-2.6 7.3-2.6h20.6c3 0 5.5.9 7.3 2.7 1.7 1.8 2.7 4.3 2.7 7.2v20.6z"/></svg><svg viewBox="0 0 20.03 20" id="search" xmlns="http://www.w3.org/2000/svg"><path d="M19.89 18.7l-5.81-5.81a7.944 7.944 0 10-1.18 1.178l5.81 5.81a.417.417 0 00.59 0l.59-.589a.421.421 0 000-.589zM7.93 14.167a6.25 6.25 0 116.25-6.25 6.254 6.254 0 01-6.25 6.246z"/></svg><svg viewBox="0 0 32 32" id="time" xmlns="http://www.w3.org/2000/svg"><path d="M16 1C7.729 1 1 7.729 1 16s6.729 15 15 15 15-6.729 15-15S24.271 1 16 1zm0 28C8.832 29 3 23.168 3 16S8.832 3 16 3s13 5.832 13 13-5.832 13-13 13z"/><path d="M21.758 15H17V6.684a1 1 0 10-2 0V16a1 1 0 001 1h5.758a1 1 0 100-2z"/></svg><svg viewBox="0 0 32 32" id="user" xmlns="http://www.w3.org/2000/svg"><path d="M31.11 28.336c-.201-.133-3.848-2.525-9.273-3.699 1.99-2.521 3.268-5.912 3.811-8.169.754-3.128.461-9.248-2.543-13.062C21.349 1.177 18.892 0 16 0c-2.892 0-5.349 1.178-7.104 3.406C5.892 7.219 5.6 13.339 6.353 16.467c.543 2.257 1.82 5.648 3.811 8.169-5.425 1.174-9.072 3.566-9.272 3.699A1.999 1.999 0 002 32h28a2.001 2.001 0 001.11-3.664zm-10.843-4.938l-.326.414c-2.385 2.74-5.495 2.74-7.879 0l-.327-.414c-2.785-3.529-4.167-8.197-3.572-12.65C8.708 6.469 11.16 2 16 2s7.293 4.47 7.838 8.749c.593 4.455-.784 9.118-3.571 12.649zM2 30c.138-.092 3.526-2.314 8.586-3.408l2.484-.537c.887.582 1.86.945 2.93.945 1.071 0 2.043-.363 2.93-.945l2.484.537C26.434 27.678 29.81 29.875 30 30H2z"/></svg><svg viewBox="0 0 64 64" id="vk" xmlns="http://www.w3.org/2000/svg"><path class="hst13" d="M4 13.9h7.1c.9 0 1.6.6 1.9 1.4.9 2.6 2.9 8.3 5.2 12.2 3.1 5.1 5.1 7 6.4 6.8 1.3-.3.9-3.7.9-6.4s.3-7.3-1-9.4l-2-2.9a1 1 0 01.8-1.6h11.4c1.1 0 2 .9 2 2v14.5s.5 2.6 3.3-.1 5.8-7.7 8.3-12.8l1-2.4c.3-.7 1-1.2 1.8-1.2h7.4c1.4 0 2.4 1.4 1.9 2.7l-.8 2.1s-2.7 5.4-5.5 9.2c-2.8 3.9-3.4 4.8-3 5.8.4 1 7.6 7.7 9.4 10.9.5.9.9 1.7 1.3 2.4.7 1.3-.3 3-1.8 3h-8.4c-.7 0-1.4-.4-1.7-1l-.8-1.3s-5.1-6-8.2-7.9c-3.2-1.8-3.1.8-3.1.8V46c0 2.2-1.8 4-4 4h-2s-11 0-19.8-13.1C5.1 26.7 2.8 20.1 2 16.3c-.2-1.2.7-2.4 2-2.4z"/></svg></svg>